<svg width="20" height="20" viewBox="0 0 20 20" fill="none" xmlns="http://www.w3.org/2000/svg">
<path id="Vector" d="M19.0001 19.0001L14.6571 14.6571M14.6571 14.6571C15.4 13.9142 15.9893 13.0323 16.3913 12.0616C16.7934 11.091 17.0003 10.0507 17.0003 9.0001C17.0003 7.9495 16.7934 6.90918 16.3913 5.93855C15.9893 4.96792 15.4 4.08599 14.6571 3.3431C13.9142 2.60021 13.0323 2.01092 12.0616 1.60887C11.091 1.20682 10.0507 0.999893 9.00008 0.999893C7.94948 0.999893 6.90917 1.20682 5.93854 1.60887C4.96791 2.01092 4.08597 2.60021 3.34308 3.3431C1.84275 4.84343 0.999878 6.87831 0.999878 9.0001C0.999878 11.1219 1.84275 13.1568 3.34308 14.6571C4.84341 16.1574 6.8783 17.0003 9.00008 17.0003C11.1219 17.0003 13.1568 16.1574 14.6571 14.6571Z" stroke="#001F24" stroke-opacity="0.88" stroke-linecap="round" stroke-linejoin="round"/>
</svg>
